<?xml version="1.0" standalone="no"?><!-- Generator: Gravit.io -->
<svg xmlns="http://www.w3.org/2000/svg" xmlns:xlink="http://www.w3.org/1999/xlink" style="isolation:isolate" viewBox="0 0 200 200" width="200" height="200">
	<g>
		<path d=" M 79.619 102.333 L 32.899 61.703 L 136.722 61.703 L 90.002 102.333 C 88.569 103.579 86.69 104.202 84.81 104.202 C 82.931 104.202 81.052 103.579 79.619 102.333 L 79.619 102.333 Z  M 38.754 12.5 C 24.851 12.5 13.563 23.787 13.563 37.69 L 13.563 162.804 C 13.563 176.434 24.629 187.5 38.26 187.5 L 129.541 187.5 C 131.407 187.5 133.735 186.221 134.737 184.646 L 184.934 105.707 C 186.937 102.557 186.937 97.443 184.934 94.293 L 134.737 15.354 C 133.735 13.779 131.407 12.5 129.541 12.5 L 38.754 12.5 L 38.754 12.5 Z  M 32.899 61.703 L 32.899 138.297 L 136.722 138.297 L 136.722 61.703 L 32.899 61.703 L 32.899 61.703 Z " fill-rule="evenodd" fill=""/>
		<path d=" M 27.5 12.5 L 172.5 12.5 C 180.779 12.5 187.5 19.221 187.5 27.5 L 187.5 172.5 C 187.5 180.779 180.779 187.5 172.5 187.5 L 27.5 187.5 C 19.221 187.5 12.5 180.779 12.5 172.5 L 12.5 27.5 C 12.5 19.221 19.221 12.5 27.5 12.5 Z  M 39.063 43.75 C 31.312 43.75 25 50.063 25 57.813 L 25 59.144 L 100 112.5 L 175 59.144 L 175 57.813 C 175 50.063 168.687 43.75 160.938 43.75 L 39.063 43.75 Z  M 41.725 50 L 158.266 50 L 100 90.625 L 41.725 50 Z  M 25 65.709 L 25 142.188 C 25 149.937 31.312 156.25 39.063 156.25 L 160.938 156.25 C 168.687 156.25 175 149.937 175 142.188 L 175 65.709 L 156.25 79.053 L 156.25 150 L 43.75 150 L 43.75 79.053 L 25 65.709 Z " fill-rule="evenodd" fill=""/>
		<path d=" M 27.5 12.5 L 172.5 12.5 C 180.779 12.5 187.5 19.221 187.5 27.5 L 187.5 172.5 C 187.5 180.779 180.779 187.5 172.5 187.5 L 27.5 187.5 C 19.221 187.5 12.5 180.779 12.5 172.5 L 12.5 27.5 C 12.5 19.221 19.221 12.5 27.5 12.5 Z  M 40.794 25.001 C 40.794 25.001 46.319 26.187 50.658 26.187 C 54.994 26.187 60.519 25.001 60.519 25.001 L 100.083 92.705 L 139.873 25.001 C 139.873 25.001 144.212 26.576 149.344 26.576 C 152.694 26.571 156.023 26.039 159.208 25.001 L 107.98 112.444 L 110.716 175.001 C 110.716 175.001 103.948 173.426 100.001 173.426 C 100.001 173.426 89.216 175.001 89.216 175.001 L 92.187 112.444 L 40.794 25.001 Z " fill-rule="evenodd" fill=""/>
	</g>
</svg>