<svg xmlns="http://www.w3.org/2000/svg" xmlns:xlink="http://www.w3.org/1999/xlink" style="isolation:isolate" viewBox="0 0 200 200" width="200" height="200"><g id="Facebook"><rect x="0" y="0" width="200" height="200" fill="none"/><path class="main-path" d=" M 135 187.5 L 187.5 187.5 L 187.5 12.5 L 12.5 12.5 L 12.5 187.5 L 110 187.5 L 110 122.5 L 85 122.5 L 85 97.5 L 110 97.5 L 110 78.3 C 110 55.2 122.5 42.6 143.2 42.6 C 153.1 42.6 162.5 43.3 165 43.6 L 165 67.4 L 149.8 67.4 C 138.5 67.4 135 72.7 135 80.6 L 135 97.5 L 163.1 97.5 L 159.7 122.5 L 135 122.5 L 135 187.5 Z "/></g></svg>