<svg xmlns="http://www.w3.org/2000/svg" xmlns:xlink="http://www.w3.org/1999/xlink" style="isolation:isolate" viewBox="0 0 200 200" width="200" height="200"><g id="Twitter"><rect x="0" y="0" width="200" height="200" fill="none"/><path class="main-path" d=" M 187.5 45.7 C 180.9 48.6 174 50.6 166.9 51.4 C 174.4 46.9 180 39.9 182.7 31.5 C 175.6 35.7 167.9 38.7 159.9 40.2 C 148.8 28.4 131 25.4 116.7 33.1 C 102.4 40.8 95 57.2 98.7 73 C 69.8 71.5 42.9 57.9 24.7 35.5 C 21.5 41 19.8 47.2 19.8 53.5 C 19.8 66 26.2 77 35.8 83.4 C 30.1 83.2 24.5 81.7 19.5 78.9 L 19.5 79.4 C 19.5 96.5 31.6 111.2 48.3 114.6 C 43 116 37.5 116.2 32.1 115.2 C 36.8 129.8 50.3 139.8 65.7 140.1 C 52.9 150.1 37.2 155.5 21.1 155.5 C 18.2 155.5 15.3 155.3 12.5 155 C 28.9 165.6 48 171.2 67.5 171.1 C 133.6 171.1 169.7 116.4 169.7 69 C 169.7 67.4 169.7 65.9 169.6 64.3 C 176.6 59.2 182.7 53 187.5 45.7 Z "/></g></svg>