<svg xmlns="http://www.w3.org/2000/svg" xmlns:xlink="http://www.w3.org/1999/xlink" style="isolation:isolate" viewBox="0 0 200 200" width="200" height="200"><g id="Vk"><rect x="0" y="0" width="200" height="200" fill="none"/><path class="main-path" d=" M 30 12.5 L 170 12.5 C 179.7 12.5 187.5 20.3 187.5 30 L 187.5 170 C 187.5 179.7 179.7 187.5 170 187.5 L 30 187.5 C 20.3 187.5 12.5 179.7 12.5 170 L 12.5 30 C 12.5 20.3 20.3 12.5 30 12.5 Z  M 98.7 135.3 L 106.1 135.3 C 106.1 135.3 108.4 135.1 109.5 133.9 C 110.6 132.7 110.6 130.6 110.6 130.6 C 110.6 130.6 110.4 120.6 115.1 119.1 C 119.7 117.6 125.5 128.8 131.8 133.1 C 136.5 136.3 140.1 135.6 140.1 135.6 L 156.8 135.3 C 156.8 135.3 165.5 134.8 161.4 127.9 C 161.1 127.4 159 122.9 149 113.6 C 138.5 103.9 139.9 105.4 152.5 88.6 C 160.2 78.4 163.3 72.2 162.3 69.5 C 161.4 66.9 155.7 67.6 155.7 67.6 L 137 67.7 C 137 67.7 135.6 67.5 134.5 68.2 C 133.5 68.8 132.9 70.2 132.9 70.2 C 132.9 70.2 129.9 78.1 125.9 84.8 C 117.6 99 114.2 99.8 112.8 98.9 C 109.6 96.9 110.5 90.6 110.5 86.2 C 110.5 72.5 112.5 66.7 106.4 65.2 C 104.3 64.8 102.8 64.4 97.6 64.4 C 90.9 64.3 85.2 64.4 82 66 C 79.9 67 78.2 69.3 79.2 69.5 C 80.5 69.6 83.3 70.2 84.8 72.3 C 86.7 74.9 86.6 80.8 86.6 80.8 C 86.6 80.8 87.7 97 84.1 99 C 81.5 100.4 78 97.6 70.6 84.7 C 66.8 78.1 63.9 70.8 63.9 70.8 C 63.9 70.8 63.3 69.4 62.3 68.7 C 61.1 67.8 59.4 67.5 59.4 67.5 L 41.6 67.6 C 41.6 67.6 38.9 67.7 37.9 68.9 C 37 69.9 37.8 72 37.8 72 C 37.8 72 51.8 104.7 67.7 121.2 C 82.2 136.3 98.7 135.3 98.7 135.3 Z " fill-rule="evenodd"/></g></svg>