<?xml version="1.0" standalone="no"?>
<!DOCTYPE svg PUBLIC "-//W3C//DTD SVG 20010904//EN"
 "http://www.w3.org/TR/2001/REC-SVG-20010904/DTD/svg10.dtd">
<svg version="1.0" xmlns="http://www.w3.org/2000/svg"
 width="512.000000pt" height="512.000000pt" viewBox="0 0 512.000000 512.000000"
 preserveAspectRatio="xMidYMid meet">
<metadata>
Created by potrace 1.11, written by Peter Selinger 2001-2013
</metadata>
<g transform="translate(0.000000,512.000000) scale(0.100000,-0.100000)"
fill="#000000" stroke="none">
<path d="M1090 3846 c0 -14 -30 -16 -300 -16 -289 0 -300 -1 -310 -20 -8 -14
-8 -26 0 -40 10 -19 21 -20 305 -20 l295 0 0 -1190 0 -1190 -295 0 c-284 0
-295 -1 -305 -20 -8 -14 -8 -26 0 -40 11 -20 21 -20 1054 -20 1130 0 1072 -3
1064 52 l-3 23 -712 3 -713 2 0 575 c0 504 2 575 15 575 11 0 15 -11 15 -43 0
-54 39 -170 82 -245 74 -130 231 -252 383 -298 90 -27 278 -25 368 4 167 54
314 177 387 325 41 84 70 179 70 229 0 18 5 28 15 28 11 0 15 11 15 40 0 29
-4 40 -15 40 -10 0 -15 10 -15 28 0 27 -21 117 -36 157 -8 19 -7 20 19 2 32
-21 34 -13 16 56 -8 35 -20 49 -62 77 -28 19 -85 66 -126 103 -42 37 -114 89
-161 114 -47 26 -259 169 -471 319 -369 261 -388 272 -445 281 -37 5 203 10
650 13 661 5 710 6 720 23 8 12 8 22 0 35 -10 16 -58 17 -733 20 -644 2 -725
4 -746 18 -23 15 -25 15 -25 0z m438 -391 l341 -240 -72 -7 c-170 -17 -293
-74 -407 -188 -42 -41 -90 -101 -108 -132 -43 -75 -82 -191 -82 -245 0 -32 -4
-43 -15 -43 -13 0 -15 68 -15 551 0 315 4 549 9 547 5 -1 162 -111 349 -243z
m458 -340 c23 -7 103 -56 179 -110 146 -104 175 -137 216 -245 11 -30 23 -79
26 -107 l6 -53 -82 0 -81 0 0 -40 0 -40 80 0 80 0 0 -33 c0 -139 -134 -341
-281 -424 -168 -94 -374 -100 -544 -16 -160 80 -283 249 -309 426 l-7 47 83 0
83 0 0 40 0 40 -83 0 -83 0 7 48 c26 176 148 344 309 425 122 61 282 78 401
42z"/>
<path d="M1800 2817 c-77 -18 -131 -49 -176 -100 -59 -67 -79 -132 -79 -257 0
-94 3 -112 29 -166 47 -104 122 -158 243 -175 66 -10 197 0 268 19 l30 8 3
167 2 167 -120 0 -120 0 0 -30 0 -30 80 0 80 0 0 -110 c0 -96 -2 -112 -17
-118 -10 -4 -65 -7 -123 -7 -89 0 -111 3 -146 22 -82 44 -123 116 -131 233
-10 137 39 239 141 293 34 18 56 22 136 21 61 0 110 -6 137 -17 l41 -15 12 28
c7 16 9 33 6 38 -18 29 -213 48 -296 29z"/>
<path d="M4583 3823 c-10 -4 -13 -254 -13 -1204 0 -659 -4 -1199 -8 -1199 -4
0 -451 313 -992 695 -885 624 -985 692 -988 671 -9 -72 -51 -39 1034 -805 562
-397 1024 -721 1028 -721 3 0 6 573 6 1273 0 977 -3 1276 -12 1285 -12 12 -33
14 -55 5z"/>
</g>
</svg>
