<svg xmlns="http://www.w3.org/2000/svg" xmlns:xlink="http://www.w3.org/1999/xlink" style="isolation:isolate" viewBox="0 0 200 200" width="200" height="200"><g id="Github"><rect x="0" y="0" width="200" height="200" fill="none"/><path class="main-path" d=" M 100 15.2 C 51.9 15.2 12.5 54.6 12.5 102.7 C 12.5 139.9 35.8 171.6 68.3 184.4 C 71.6 183.7 74.5 180.7 74.5 177.1 L 74.5 161.1 L 65 161.1 C 58.1 161.1 52.2 157.8 49.3 152.7 C 48.6 151.2 47.9 149.4 47.1 147.6 C 45.7 143.6 43.9 139.2 40.2 136.6 C 38.7 135.5 38 133.4 38.4 131.5 C 39.1 129.7 40.9 128.3 44.2 128.6 C 47.9 129 53.3 133 56.6 137.4 C 59.5 141 61.7 143.2 66.1 143.2 L 67.2 143.2 C 70.5 143.2 78.5 143.2 79.9 141.7 C 81 140.3 81.8 139.2 82.9 138.1 C 61 133.7 48.6 121 48.6 101.6 C 48.6 95.1 50.4 88.5 54.4 82.7 C 53 77.2 49.7 63 56.6 56.8 L 57.7 55.7 L 59.2 55.7 C 68.6 55.7 75.6 59.7 79.9 63 C 92.7 58.3 107.3 58.3 120.1 63 C 124.1 59.7 131 55.7 140.8 55.7 L 142.3 55.7 L 143.4 56.8 C 150.3 63.4 147 77.2 145.6 82.7 C 149.2 88.5 151.4 95.1 151.4 101.6 C 151.4 121 139 133.7 117.5 138.1 C 123 143.9 125.9 152.7 125.9 159.6 L 125.9 177.5 C 125.9 181.1 128.4 184 132.1 184.8 C 164.2 171.6 187.5 139.9 187.5 102.7 C 187.5 54.6 148.1 15.2 100 15.2 Z "/></g></svg>