<svg xmlns="http://www.w3.org/2000/svg" xmlns:xlink="http://www.w3.org/1999/xlink" style="isolation:isolate" viewBox="0 0 200 200" width="200" height="200"><g id="RSS"><rect x="0" y="0" width="200" height="200" fill="none"/><path class="main-path" d=" M 12.5 163 C 12.5 149.5 23.5 138.5 37 138.5 C 50.5 138.5 61.5 149.5 61.5 163 C 61.5 176.5 50.5 187.5 37 187.5 C 23.5 187.5 12.5 176.5 12.5 163 Z  M 12.5 12.5 L 12.5 44.3 C 91.6 44.3 155.7 108.4 155.7 187.5 L 187.5 187.5 C 187.5 90.9 109.1 12.5 12.5 12.5 Z  M 12.5 76.2 L 12.5 108 C 56.4 108 92 143.6 92 187.5 L 123.8 187.5 C 123.8 126 74 76.2 12.5 76.2 Z " fill-rule="evenodd"/></g></svg>