<svg xmlns="http://www.w3.org/2000/svg" xmlns:xlink="http://www.w3.org/1999/xlink" style="isolation:isolate" viewBox="0 0 200 200" width="200" height="200"><g id="Youtube"><rect x="0" y="0" width="200" height="200" fill="none"/><path class="main-path" d=" M 182.6 57.4 C 181 48.4 173.3 41.9 164.3 39.9 C 151 37.1 126.2 35 99.4 35 C 72.6 35 47.4 37.1 34 39.9 C 25.1 41.9 17.4 48 15.8 57.4 C 14.1 67.5 12.5 81.7 12.5 100 C 12.5 118.3 14.1 132.5 16.1 142.6 C 17.8 151.6 25.5 158.1 34.4 160.1 C 48.6 162.9 73 165 99.8 165 C 126.6 165 151 162.9 165.2 160.1 C 174.1 158.1 181.8 152 183.4 142.6 C 185.1 132.5 187.1 117.9 187.5 100 C 186.7 81.7 184.6 67.5 182.6 57.4 Z  M 77.5 128.4 L 77.5 71.6 L 127 100 L 77.5 128.4 Z "/></g></svg>