<svg xmlns="http://www.w3.org/2000/svg" xmlns:xlink="http://www.w3.org/1999/xlink" style="isolation:isolate" viewBox="0 0 200 200" width="200" height="200">
	<defs>
		<clipPath id="_clipPath_vw3VevthUtSmQSwMeHOdPG2Or0bok5wA">
			<rect width="200" height="200"/>
		</clipPath>
	</defs>
	<g clip-path="url(#_clipPath_vw3VevthUtSmQSwMeHOdPG2Or0bok5wA)">
		<path id="books-read" d=" M 126.275 153.104 C 126.275 137.866 138.646 125.494 153.884 125.494 C 169.122 125.494 181.493 137.866 181.493 153.104 C 181.493 168.342 169.122 180.713 153.884 180.713 C 138.646 180.713 126.275 168.342 126.275 153.104 Z  M 147.637 168.991 C 147.126 168.991 146.637 168.788 146.276 168.427 L 135.684 157.835 C 135.183 157.352 134.983 156.636 135.159 155.963 C 135.335 155.289 135.861 154.763 136.534 154.587 C 137.208 154.411 137.924 154.612 138.407 155.112 L 147.502 164.208 L 169.262 137.915 C 169.94 137.095 171.154 136.981 171.973 137.659 C 172.793 138.337 172.908 139.55 172.23 140.37 L 149.121 168.293 C 148.755 168.735 148.211 168.991 147.637 168.991 Z  M 92.271 19.346 C 90.615 19.396 89.056 20.139 87.975 21.395 L 26.163 90.312 C 24.878 91.782 21.705 97.148 20.187 104.128 C 19.041 107.428 18.473 110.901 18.508 114.394 C 18.508 132.93 34.009 140.352 34.009 140.352 C 34.242 140.49 34.499 140.609 34.756 140.723 L 106.464 162.014 C 108.8 162.688 111.312 161.874 112.81 159.958 L 171.257 89.559 C 172.714 87.765 173.005 85.291 172.004 83.207 C 172.004 83.207 169.745 77.979 172.195 72.003 C 173.008 70.019 172.709 67.76 171.401 66.051 C 170.094 64.347 167.969 63.481 165.843 63.786 C 163.735 64.114 161.958 65.536 161.176 67.521 C 158.117 75.015 159.007 80.709 160.053 84.331 L 106.093 149.315 L 38.485 129.333 L 38.108 129.148 C 36.997 128.729 30.46 125.783 30.46 114.394 C 30.46 109.912 31.416 107.534 32.33 106.177 C 33.051 105.007 34.179 104.143 35.497 103.751 C 36.812 103.333 38.306 103.333 39.423 103.375 L 39.608 103.375 L 101.982 121.302 C 104.412 121.903 106.969 121.026 108.519 119.061 L 171.813 46.051 C 173.187 44.366 173.659 42.125 172.936 40.075 C 172.196 37.988 170.428 36.433 168.263 35.964 L 93.957 19.346 C 93.395 19.226 92.833 19.322 92.277 19.346 L 92.271 19.346 Z  M 90.592 43.057 C 91.244 43.039 91.847 43.105 92.457 43.248 L 136.903 54.076 C 139.329 54.662 140.262 56.251 138.953 57.811 L 134.101 63.601 C 132.768 65.167 129.643 65.866 127.187 65.28 L 82.938 54.458 C 80.487 53.873 79.579 52.074 80.882 50.532 L 85.555 44.933 C 86.535 43.768 88.632 43.111 90.598 43.063 L 90.592 43.057 Z " fill-rule="evenodd" />
		<path id="movies-watched" d=" M 74.652 54.43 C 67.785 54.43 62.229 60.02 62.229 66.853 C 62.229 73.721 67.819 79.277 74.652 79.277 C 81.485 79.277 87.076 73.686 87.076 66.853 C 87.076 59.986 81.52 54.43 74.652 54.43 L 74.652 54.43 Z  M 74.652 70.994 C 72.375 70.994 70.511 69.131 70.511 66.853 C 70.511 64.576 72.375 62.712 74.652 62.712 C 76.93 62.712 78.794 64.576 78.794 66.853 C 78.794 69.131 76.93 70.994 74.652 70.994 Z  M 74.652 120.723 C 67.785 120.723 62.229 126.314 62.229 133.147 C 62.229 139.98 67.819 145.57 74.652 145.57 C 81.485 145.57 87.076 139.98 87.076 133.147 C 87.076 126.314 81.52 120.723 74.652 120.723 L 74.652 120.723 Z  M 74.652 137.288 C 72.375 137.288 70.511 135.424 70.511 133.147 C 70.511 130.869 72.375 129.006 74.652 129.006 C 76.93 129.006 78.794 130.869 78.794 133.147 C 78.794 135.424 76.93 137.288 74.652 137.288 Z  M 49.184 104.573 C 45.975 103.71 42.627 104.158 39.763 105.815 C 33.827 109.231 31.791 116.858 35.208 122.794 C 37.52 126.762 41.695 129.006 45.975 129.006 C 51.591 128.997 56.502 125.218 57.95 119.791 C 58.812 116.582 58.364 113.235 56.707 110.37 C 55.084 107.503 52.371 105.412 49.184 104.573 L 49.184 104.573 Z  M 49.943 117.652 C 49.667 118.722 48.977 119.619 48.011 120.171 C 46.044 121.31 43.49 120.62 42.351 118.653 C 41.212 116.686 41.902 114.132 43.87 112.993 C 44.491 112.613 45.215 112.441 45.94 112.441 C 46.285 112.441 46.665 112.475 47.01 112.579 C 48.08 112.855 48.977 113.545 49.529 114.511 C 50.081 115.443 50.254 116.582 49.943 117.652 L 49.943 117.652 Z  M 97.153 72.651 C 91.217 76.067 89.181 83.694 92.598 89.63 C 94.823 93.488 98.945 95.859 103.399 95.842 C 105.539 95.842 107.678 95.289 109.577 94.185 C 115.512 90.769 117.548 83.142 114.132 77.206 C 110.691 71.273 103.102 69.236 97.153 72.651 L 97.153 72.651 Z  M 105.435 87.007 C 104.469 87.559 103.365 87.697 102.295 87.421 C 101.225 87.145 100.328 86.455 99.776 85.489 C 98.637 83.521 99.327 80.968 101.294 79.829 C 102.246 79.279 103.377 79.13 104.439 79.415 C 105.5 79.7 106.405 80.395 106.954 81.347 C 108.093 83.314 107.402 85.868 105.435 87.007 L 105.435 87.007 Z  M 109.577 105.815 C 106.712 104.158 103.365 103.71 100.155 104.573 C 96.946 105.435 94.254 107.471 92.598 110.37 C 89.181 116.306 91.217 123.933 97.153 127.349 C 99.028 128.44 101.161 129.012 103.33 129.006 C 107.644 129.006 111.82 126.762 114.097 122.794 C 117.548 116.858 115.512 109.231 109.577 105.815 L 109.577 105.815 Z  M 106.954 118.653 C 105.815 120.62 103.261 121.31 101.294 120.171 C 99.327 119.032 98.637 116.479 99.776 114.511 C 100.328 113.545 101.225 112.855 102.295 112.579 C 102.64 112.475 103.02 112.441 103.365 112.441 C 104.089 112.441 104.78 112.613 105.435 112.993 C 107.402 114.132 108.093 116.651 106.954 118.653 L 106.954 118.653 Z  M 52.152 72.651 C 46.216 69.234 38.59 71.27 35.173 77.206 C 31.757 83.142 33.793 90.769 39.728 94.185 C 41.605 95.273 43.736 95.844 45.906 95.842 C 46.975 95.842 48.08 95.704 49.15 95.427 C 52.359 94.565 55.051 92.529 56.707 89.63 C 58.364 86.765 58.812 83.418 57.95 80.209 C 57.087 76.999 55.051 74.307 52.152 72.651 Z  M 49.529 85.489 C 48.977 86.455 48.08 87.145 47.01 87.421 C 45.94 87.697 44.836 87.559 43.87 87.007 C 41.902 85.868 41.212 83.314 42.351 81.347 C 43.495 79.365 46.029 78.685 48.011 79.829 C 49.993 80.972 50.673 83.506 49.529 85.489 L 49.529 85.489 Z  M 74.652 87.559 C 67.785 87.559 62.229 93.15 62.229 99.983 C 62.229 106.816 67.819 112.406 74.652 112.406 C 81.485 112.406 87.076 106.816 87.076 99.983 C 87.076 93.15 81.52 87.559 74.652 87.559 Z  M 74.652 104.124 C 72.375 104.124 70.511 102.26 70.511 99.983 C 70.511 97.705 72.375 95.842 74.652 95.842 C 76.93 95.842 78.794 97.705 78.794 99.983 C 78.794 102.26 76.93 104.124 74.652 104.124 Z  M 158.028 125.382 C 146.33 125.382 136.805 115.857 136.805 104.158 L 136.667 104.158 C 136.77 102.778 136.805 101.398 136.805 100.017 C 136.805 65.749 108.921 37.865 74.652 37.865 C 40.384 37.865 12.5 65.714 12.5 99.983 C 12.5 134.251 40.384 162.135 74.652 162.135 C 101.812 162.135 124.933 144.639 133.354 120.344 C 138.803 128.646 148.063 133.652 157.994 133.664 C 174.283 133.664 187.5 120.413 187.5 104.158 L 179.218 104.158 C 179.252 115.857 169.727 125.382 158.028 125.382 Z  M 74.652 153.853 C 44.939 153.853 20.782 129.696 20.782 99.983 C 20.782 70.27 44.939 46.113 74.652 46.113 C 104.366 46.113 128.522 70.27 128.522 99.983 C 128.522 129.696 104.366 153.853 74.652 153.853 L 74.652 153.853 Z "/>
		<path id="books-currently-reading" d=" M 126.275 153.104 C 126.275 137.866 138.646 125.494 153.884 125.494 C 169.122 125.494 181.493 137.866 181.493 153.104 C 181.493 168.342 169.122 180.713 153.884 180.713 C 138.646 180.713 126.275 168.342 126.275 153.104 Z  M 153.158 130.082 C 153.008 130.119 152.858 130.174 152.722 130.225 C 151.102 130.713 149.964 132.653 150.001 134.864 L 150.001 153.417 C 149.975 154.659 150.329 155.862 150.98 156.751 L 157.948 166.028 C 159.338 167.874 161.572 167.874 162.958 166.028 C 163.625 165.145 164 163.945 164 162.693 C 164 161.441 163.625 160.241 162.958 159.358 L 156.969 151.385 L 156.969 134.864 C 157.005 133.529 156.607 132.239 155.877 131.324 C 155.147 130.408 154.156 129.955 153.158 130.082 Z  M 92.271 19.346 C 90.615 19.396 89.056 20.139 87.975 21.395 L 26.163 90.312 C 24.878 91.782 21.705 97.148 20.187 104.128 C 19.041 107.428 18.473 110.901 18.508 114.394 C 18.508 132.93 34.009 140.352 34.009 140.352 C 34.242 140.49 34.499 140.609 34.756 140.723 L 106.464 162.014 C 108.8 162.688 111.312 161.874 112.81 159.958 L 171.257 89.559 C 172.714 87.765 173.005 85.291 172.004 83.207 C 172.004 83.207 169.745 77.979 172.195 72.003 C 173.008 70.019 172.709 67.76 171.401 66.051 C 170.094 64.347 167.969 63.481 165.843 63.786 C 163.735 64.114 161.958 65.536 161.176 67.521 C 158.117 75.015 159.007 80.709 160.053 84.331 L 106.093 149.315 L 38.485 129.333 L 38.108 129.148 C 36.997 128.729 30.46 125.783 30.46 114.394 C 30.46 109.912 31.416 107.534 32.33 106.177 C 33.051 105.007 34.179 104.143 35.497 103.751 C 36.812 103.333 38.306 103.333 39.423 103.375 L 39.608 103.375 L 101.982 121.302 C 104.412 121.903 106.969 121.026 108.519 119.061 L 171.813 46.051 C 173.187 44.366 173.659 42.125 172.936 40.075 C 172.196 37.988 170.428 36.433 168.263 35.964 L 93.957 19.346 C 93.395 19.226 92.833 19.322 92.277 19.346 L 92.271 19.346 Z  M 90.592 43.057 C 91.244 43.039 91.847 43.105 92.457 43.248 L 136.903 54.076 C 139.329 54.662 140.262 56.251 138.953 57.811 L 134.101 63.601 C 132.768 65.167 129.643 65.866 127.187 65.28 L 82.938 54.458 C 80.487 53.873 79.579 52.074 80.882 50.532 L 85.555 44.933 C 86.535 43.768 88.632 43.111 90.598 43.063 L 90.592 43.057 Z " fill-rule="evenodd" />
		<path id="books-to-read" d=" M 92.271 19.346 C 90.615 19.396 89.056 20.139 87.975 21.395 L 26.163 90.312 C 24.878 91.782 21.705 97.148 20.187 104.128 C 19.041 107.428 18.473 110.901 18.508 114.394 C 18.508 132.93 34.009 140.352 34.009 140.352 C 34.242 140.49 34.499 140.609 34.756 140.723 L 106.464 162.014 C 108.8 162.688 111.312 161.874 112.81 159.958 L 171.257 89.559 C 172.714 87.765 173.005 85.291 172.004 83.207 C 172.004 83.207 169.745 77.979 172.195 72.003 C 173.008 70.019 172.709 67.76 171.401 66.051 C 170.094 64.347 167.969 63.481 165.843 63.786 C 163.735 64.114 161.958 65.536 161.176 67.521 C 158.117 75.015 159.007 80.709 160.053 84.331 L 106.093 149.315 L 38.485 129.333 L 38.108 129.148 C 36.997 128.729 30.46 125.783 30.46 114.394 C 30.46 109.912 31.416 107.534 32.33 106.177 C 33.051 105.007 34.179 104.143 35.497 103.751 C 36.812 103.333 38.306 103.333 39.423 103.375 L 39.608 103.375 L 101.982 121.302 C 104.412 121.903 106.969 121.026 108.519 119.061 L 171.813 46.051 C 173.187 44.366 173.659 42.125 172.936 40.075 C 172.196 37.988 170.428 36.433 168.263 35.964 L 93.957 19.346 C 93.395 19.226 92.833 19.322 92.277 19.346 L 92.271 19.346 Z  M 90.592 43.057 C 91.244 43.039 91.847 43.105 92.457 43.248 L 136.903 54.076 C 139.329 54.662 140.262 56.251 138.953 57.811 L 134.101 63.601 C 132.768 65.167 129.643 65.866 127.187 65.28 L 82.938 54.458 C 80.487 53.873 79.579 52.074 80.882 50.532 L 85.555 44.933 C 86.535 43.768 88.632 43.111 90.598 43.063 L 90.592 43.057 Z  M 126.275 153.104 C 126.275 137.866 138.646 125.494 153.884 125.494 C 169.122 125.494 181.493 137.866 181.493 153.104 C 181.493 168.342 169.122 180.713 153.884 180.713 C 138.646 180.713 126.275 168.342 126.275 153.104 Z  M 128.964 153.104 C 128.964 149.719 131.711 146.971 135.096 146.971 C 138.481 146.971 141.229 149.719 141.229 153.104 C 141.229 156.488 138.481 159.236 135.096 159.236 C 131.711 159.236 128.964 156.488 128.964 153.104 Z  M 147.751 153.104 C 147.751 149.719 150.499 146.971 153.884 146.971 C 157.268 146.971 160.016 149.719 160.016 153.104 C 160.016 156.488 157.268 159.236 153.884 159.236 C 150.499 159.236 147.751 156.488 147.751 153.104 Z  M 166.539 153.104 C 166.539 149.719 169.287 146.971 172.672 146.971 C 176.056 146.971 178.804 149.719 178.804 153.104 C 178.804 156.488 176.056 159.236 172.672 159.236 C 169.287 159.236 166.539 156.488 166.539 153.104 Z " fill-rule="evenodd" />
		<path id="great-quotes" d=" M 44.172 25 C 34.971 25 27.423 32.548 27.423 41.749 L 27.423 131.074 C 27.423 140.275 34.971 147.823 44.172 147.823 L 60.92 147.823 L 60.92 175 L 101.697 147.823 L 155.828 147.823 C 165.029 147.823 172.577 140.275 172.577 131.074 L 172.577 41.749 C 172.577 32.548 165.029 25 155.828 25 L 44.172 25 Z  M 44.172 36.166 L 155.828 36.166 C 158.966 36.166 161.411 38.611 161.411 41.749 L 161.411 131.074 C 161.411 134.212 158.966 136.657 155.828 136.657 L 98.303 136.657 L 72.086 154.142 L 72.086 136.657 L 44.172 136.657 C 42.685 136.675 41.255 136.093 40.204 135.042 C 39.153 133.991 38.57 132.56 38.589 131.074 L 38.589 41.749 C 38.589 38.611 41.034 36.166 44.172 36.166 Z  M 66.503 58.497 C 63.41 58.497 60.92 60.987 60.92 64.08 L 60.92 86.411 C 60.92 89.504 63.41 91.994 66.503 91.994 L 83.251 91.994 C 83.251 98.236 78.327 103.16 72.086 103.16 L 72.086 114.326 C 84.346 114.326 94.417 104.254 94.417 91.994 L 94.417 64.08 C 94.417 60.987 91.927 58.497 88.834 58.497 L 66.503 58.497 Z  M 111.166 58.497 C 108.073 58.497 105.583 60.987 105.583 64.08 L 105.583 86.411 C 105.583 89.504 108.073 91.994 111.166 91.994 L 127.914 91.994 C 127.914 98.236 122.99 103.16 116.749 103.16 L 116.749 114.326 C 129.008 114.326 139.08 104.254 139.08 91.994 L 139.08 64.08 C 139.08 60.987 136.59 58.497 133.497 58.497 L 111.166 58.497 Z "/>
	</g>
</svg>