<svg xmlns="http://www.w3.org/2000/svg" xmlns:xlink="http://www.w3.org/1999/xlink" viewBox="0 0 200 200" width="200" height="200">
	<defs>
		<g id="facebook"><rect x="0" y="0" width="200" height="200" fill="none"/><path class="main-path" d=" M 135 187.5 L 187.5 187.5 L 187.5 12.5 L 12.5 12.5 L 12.5 187.5 L 110 187.5 L 110 122.5 L 85 122.5 L 85 97.5 L 110 97.5 L 110 78.3 C 110 55.2 122.5 42.6 143.2 42.6 C 153.1 42.6 162.5 43.3 165 43.6 L 165 67.4 L 149.8 67.4 C 138.5 67.4 135 72.7 135 80.6 L 135 97.5 L 163.1 97.5 L 159.7 122.5 L 135 122.5 L 135 187.5 Z "/></g>
		<g id="twitter"><rect x="0" y="0" width="200" height="200" fill="none"/><path class="main-path" d=" M 187.5 45.7 C 180.9 48.6 174 50.6 166.9 51.4 C 174.4 46.9 180 39.9 182.7 31.5 C 175.6 35.7 167.9 38.7 159.9 40.2 C 148.8 28.4 131 25.4 116.7 33.1 C 102.4 40.8 95 57.2 98.7 73 C 69.8 71.5 42.9 57.9 24.7 35.5 C 21.5 41 19.8 47.2 19.8 53.5 C 19.8 66 26.2 77 35.8 83.4 C 30.1 83.2 24.5 81.7 19.5 78.9 L 19.5 79.4 C 19.5 96.5 31.6 111.2 48.3 114.6 C 43 116 37.5 116.2 32.1 115.2 C 36.8 129.8 50.3 139.8 65.7 140.1 C 52.9 150.1 37.2 155.5 21.1 155.5 C 18.2 155.5 15.3 155.3 12.5 155 C 28.9 165.6 48 171.2 67.5 171.1 C 133.6 171.1 169.7 116.4 169.7 69 C 169.7 67.4 169.7 65.9 169.6 64.3 C 176.6 59.2 182.7 53 187.5 45.7 Z "/></g>
		<g id="vk"><rect x="0" y="0" width="200" height="200" fill="none"/><path class="main-path" d=" M 30 12.5 L 170 12.5 C 179.7 12.5 187.5 20.3 187.5 30 L 187.5 170 C 187.5 179.7 179.7 187.5 170 187.5 L 30 187.5 C 20.3 187.5 12.5 179.7 12.5 170 L 12.5 30 C 12.5 20.3 20.3 12.5 30 12.5 Z  M 98.7 135.3 L 106.1 135.3 C 106.1 135.3 108.4 135.1 109.5 133.9 C 110.6 132.7 110.6 130.6 110.6 130.6 C 110.6 130.6 110.4 120.6 115.1 119.1 C 119.7 117.6 125.5 128.8 131.8 133.1 C 136.5 136.3 140.1 135.6 140.1 135.6 L 156.8 135.3 C 156.8 135.3 165.5 134.8 161.4 127.9 C 161.1 127.4 159 122.9 149 113.6 C 138.5 103.9 139.9 105.4 152.5 88.6 C 160.2 78.4 163.3 72.2 162.3 69.5 C 161.4 66.9 155.7 67.6 155.7 67.6 L 137 67.7 C 137 67.7 135.6 67.5 134.5 68.2 C 133.5 68.8 132.9 70.2 132.9 70.2 C 132.9 70.2 129.9 78.1 125.9 84.8 C 117.6 99 114.2 99.8 112.8 98.9 C 109.6 96.9 110.5 90.6 110.5 86.2 C 110.5 72.5 112.5 66.7 106.4 65.2 C 104.3 64.8 102.8 64.4 97.6 64.4 C 90.9 64.3 85.2 64.4 82 66 C 79.9 67 78.2 69.3 79.2 69.5 C 80.5 69.6 83.3 70.2 84.8 72.3 C 86.7 74.9 86.6 80.8 86.6 80.8 C 86.6 80.8 87.7 97 84.1 99 C 81.5 100.4 78 97.6 70.6 84.7 C 66.8 78.1 63.9 70.8 63.9 70.8 C 63.9 70.8 63.3 69.4 62.3 68.7 C 61.1 67.8 59.4 67.5 59.4 67.5 L 41.6 67.6 C 41.6 67.6 38.9 67.7 37.9 68.9 C 37 69.9 37.8 72 37.8 72 C 37.8 72 51.8 104.7 67.7 121.2 C 82.2 136.3 98.7 135.3 98.7 135.3 Z " fill-rule="evenodd"/></g>
		<g id="gmail"><rect x="0" y="0" width="200" height="200" fill="none"/><path class="main-path" d=" M 27.5 12.5 L 172.5 12.5 C 180.779 12.5 187.5 19.221 187.5 27.5 L 187.5 172.5 C 187.5 180.779 180.779 187.5 172.5 187.5 L 27.5 187.5 C 19.221 187.5 12.5 180.779 12.5 172.5 L 12.5 27.5 C 12.5 19.221 19.221 12.5 27.5 12.5 Z  M 39.063 43.75 C 31.312 43.75 25 50.063 25 57.813 L 25 59.144 L 100 112.5 L 175 59.144 L 175 57.813 C 175 50.063 168.687 43.75 160.938 43.75 L 39.063 43.75 Z  M 41.725 50 L 158.266 50 L 100 90.625 L 41.725 50 Z  M 25 65.709 L 25 142.188 C 25 149.937 31.312 156.25 39.063 156.25 L 160.938 156.25 C 168.687 156.25 175 149.937 175 142.188 L 175 65.709 L 156.25 79.053 L 156.25 150 L 43.75 150 L 43.75 79.053 L 25 65.709 Z " fill-rule="evenodd"/></g>
		<g id="yahoo-mail"><rect x="0" y="0" width="200" height="200" fill="none"/><path class="main-path" d=" M 27.5 12.5 L 172.5 12.5 C 180.779 12.5 187.5 19.221 187.5 27.5 L 187.5 172.5 C 187.5 180.779 180.779 187.5 172.5 187.5 L 27.5 187.5 C 19.221 187.5 12.5 180.779 12.5 172.5 L 12.5 27.5 C 12.5 19.221 19.221 12.5 27.5 12.5 Z  M 40.794 25.001 C 40.794 25.001 46.319 26.187 50.658 26.187 C 54.994 26.187 60.519 25.001 60.519 25.001 L 100.083 92.705 L 139.873 25.001 C 139.873 25.001 144.212 26.576 149.344 26.576 C 152.694 26.571 156.023 26.039 159.208 25.001 L 107.98 112.444 L 110.716 175.001 C 110.716 175.001 103.948 173.426 100.001 173.426 C 100.001 173.426 89.216 175.001 89.216 175.001 L 92.187 112.444 L 40.794 25.001 Z " fill-rule="evenodd"/></g>
		<g id="yandex-mail"><rect x="0" y="0" width="200" height="200" fill="none"/><path class="main-path" d=" M 79.619 102.333 L 32.899 61.703 L 136.722 61.703 L 90.002 102.333 C 88.569 103.579 86.69 104.202 84.81 104.202 C 82.931 104.202 81.052 103.579 79.619 102.333 L 79.619 102.333 Z  M 38.754 12.5 C 24.851 12.5 13.563 23.787 13.563 37.69 L 13.563 162.804 C 13.563 176.434 24.629 187.5 38.26 187.5 L 129.541 187.5 C 131.407 187.5 133.735 186.221 134.737 184.646 L 184.934 105.707 C 186.937 102.557 186.937 97.443 184.934 94.293 L 134.737 15.354 C 133.735 13.779 131.407 12.5 129.541 12.5 L 38.754 12.5 L 38.754 12.5 Z  M 32.899 61.703 L 32.899 138.297 L 136.722 138.297 L 136.722 61.703 L 32.899 61.703 L 32.899 61.703 Z " fill-rule="evenodd"/></g>	
	</defs>
</svg>