<svg xmlns="http://www.w3.org/2000/svg" xmlns:xlink="http://www.w3.org/1999/xlink" style="isolation:isolate" viewBox="0 0 200 200" width="200" height="200">
	<defs>
		<path id="book-summaries" d=" M 90.065 12.548 C 88.372 12.648 86.784 13.404 85.638 14.654 L 25.31 81.731 C 23.94 83.31 18.986 90.377 18.986 101.136 C 19.121 100.974 19.276 100.866 19.411 100.71 C 19.249 101.898 18.986 103.059 18.986 104.294 C 18.986 111.84 20.943 117.294 23.629 121.168 C 20.608 125.5 18.987 130.655 18.986 135.936 C 18.986 144.981 22.043 151.44 25.526 155.341 C 27.687 157.727 30.353 159.601 33.329 160.829 L 115.376 187.192 C 117.975 188.006 120.808 187.172 122.551 185.08 L 179.497 115.688 C 181.257 113.531 181.509 110.513 180.131 108.094 C 180.131 108.094 173.719 97.498 180.34 79.827 C 180.707 79.033 180.923 78.177 180.975 77.303 L 180.975 75.825 C 180.835 74.677 180.397 73.586 179.706 72.659 C 179.706 72.659 179.868 73.402 179.706 72.45 C 179.551 71.505 179.368 69.494 180.55 65.91 C 181.346 63.642 180.867 61.118 179.314 59.295 C 177.739 57.479 175.323 56.628 172.956 57.054 C 170.55 57.562 168.611 59.339 167.894 61.691 C 166.133 67.091 165.842 71.498 166.423 74.772 C 166.477 75.109 166.558 75.082 166.632 75.4 L 115.167 139.102 L 37.547 115.262 C 37.063 115.142 36.567 115.074 36.069 115.06 C 36.069 115.06 36.204 115.37 35.225 114.419 C 34.253 113.474 32.485 111.26 32.485 104.294 C 32.485 99.313 33.727 97.761 35.225 96.708 C 36.668 95.76 38.352 95.245 40.078 95.223 L 40.503 95.223 L 111.374 116.741 C 113.717 117.379 116.215 116.546 117.705 114.628 L 179.49 41.659 C 180.847 40.009 181.249 37.772 180.55 35.753 C 179.884 33.727 178.198 32.202 176.115 31.744 L 91.543 12.555 C 90.99 12.447 90.619 12.528 90.065 12.555 L 90.065 12.548 Z  M 88.378 35.537 C 89.012 35.51 89.458 35.618 90.065 35.746 L 133.519 46.296 C 135.888 46.876 136.678 48.563 135.415 50.089 L 130.772 55.785 C 129.489 57.318 126.607 58.026 124.238 57.473 L 80.785 46.923 C 78.389 46.35 77.619 44.628 78.888 43.13 L 83.532 37.433 C 84.477 36.299 86.454 35.591 88.378 35.537 Z  M 164.101 99.657 C 164.681 104.085 165.944 107.514 166.841 109.782 L 115.167 172.85 L 37.756 148.166 L 37.547 148.166 C 37.466 148.146 36.967 147.964 35.65 146.479 C 34.253 144.9 32.485 142.112 32.485 135.936 C 32.485 132.67 33.801 130.186 35.016 128.552 L 115.376 153.445 C 118.017 154.209 120.858 153.29 122.551 151.123 L 164.101 99.657 Z "/>
		<path id="random-thoughts" d=" M 94.536 19.758 C 87.001 19.758 81.614 22.764 77.368 26.17 C 74.02 24.332 70.146 23.406 65.813 23.406 C 57.665 23.406 51.151 27.097 46.435 34.362 C 46.081 34.362 45.753 34.362 45.468 34.348 C 38.885 34.063 32.63 36.47 27.771 41.103 C 22.978 45.732 20.126 52.012 19.795 58.668 C 15.334 61.703 12.5 67.046 12.5 72.645 C 12.5 77.204 14.495 82.004 17.559 85.367 C 14.251 88.66 12.5 92.749 12.5 97.264 C 12.5 103.534 15.148 108.776 19.766 111.741 L 19.766 114.589 C 19.766 126.998 28.3 136.375 39.625 136.474 C 41.394 139.906 44.429 142.287 48.317 143.258 L 42.478 175.5 L 41.62 180.242 L 63.49 180.242 L 64.329 176.565 C 64.95 174.09 65.746 171.662 66.711 169.3 C 70.059 161.049 76.668 151.063 89.065 151.063 C 101.732 151.063 112.39 141.532 114.298 129.179 L 114.597 129.179 C 120.695 129.179 127.136 125.349 130.568 120.217 C 132.436 121.202 134.77 121.884 137.849 121.884 C 143.079 121.884 147.237 119.32 149.775 114.589 L 151.982 114.589 C 161.4 114.589 166.003 111 168.224 107.28 C 182.445 106.795 187.5 97.75 187.5 89.97 C 187.5 85.181 186.205 81.891 184.881 79.826 C 186.161 77.93 187.5 74.997 187.5 70.365 C 187.5 62.286 183.499 56.987 175.518 54.594 C 172.644 45.554 164.683 39.079 155.246 38.108 C 150.541 29.351 140.54 23.406 130.098 23.406 C 124.244 23.406 120.053 23.891 115.151 26.269 C 109.768 21.783 103.283 19.758 94.536 19.758 Z  M 110.949 45.29 L 118.244 45.29 L 118.244 52.927 C 120.524 53.393 122.692 54.297 124.627 55.59 L 130.069 50.163 L 135.226 55.32 L 129.799 60.733 C 131.083 62.658 131.995 64.836 132.461 67.174 L 140.128 67.174 L 140.128 74.469 L 132.432 74.469 C 131.966 76.71 131.077 78.843 129.813 80.753 L 135.226 86.151 L 130.083 91.323 L 124.642 85.91 C 122.698 87.195 120.527 88.094 118.244 88.558 L 118.244 96.181 L 110.949 96.181 L 110.949 88.558 C 108.672 88.091 106.506 87.192 104.566 85.91 L 99.125 91.323 L 93.967 86.151 L 99.395 80.753 C 98.125 78.844 97.23 76.712 96.758 74.469 L 89.065 74.469 L 89.065 67.174 L 96.717 67.174 C 97.199 64.84 98.111 62.658 99.38 60.733 L 93.967 55.32 L 99.11 50.163 L 104.552 55.59 C 106.491 54.295 108.664 53.391 110.949 52.927 L 110.949 45.29 Z  M 114.597 59.835 C 108.557 59.835 103.655 64.723 103.655 70.748 C 103.669 76.779 108.566 81.658 114.597 81.65 C 120.637 81.65 125.539 76.763 125.539 70.748 C 125.529 64.714 120.631 59.829 114.597 59.835 L 114.597 59.835 Z  M 67.181 74.64 L 74.476 74.64 L 74.476 82.263 C 76.753 82.73 78.92 83.629 80.859 84.911 L 86.301 79.498 L 91.458 84.67 L 86.031 90.068 C 87.3 91.977 88.195 94.11 88.668 96.353 L 96.36 96.353 L 96.36 103.647 L 88.708 103.647 C 88.236 105.944 87.332 108.129 86.045 110.089 L 91.458 115.501 L 86.315 120.659 L 80.873 115.231 C 78.934 116.526 76.761 117.431 74.476 117.894 L 74.476 125.531 L 67.181 125.531 L 67.181 117.894 C 64.901 117.428 62.733 116.524 60.798 115.231 L 55.356 120.659 L 50.199 115.501 L 55.626 110.089 C 54.327 108.136 53.423 105.947 52.964 103.647 L 45.297 103.647 L 45.297 96.353 L 52.993 96.353 C 53.459 94.111 54.348 91.978 55.612 90.068 L 50.199 84.67 L 55.342 79.498 L 60.784 84.911 C 62.727 83.626 64.899 82.727 67.181 82.263 L 67.181 74.64 Z  M 70.828 89.171 C 64.788 89.171 59.886 94.058 59.886 100.073 C 59.896 106.107 64.794 110.992 70.828 110.986 C 76.868 110.986 81.771 106.098 81.771 100.073 C 81.756 94.042 76.859 89.163 70.828 89.171 L 70.828 89.171 Z "/>
		<path id="cool-projects" d=" M 109.234 128.047 L 104.197 126.072 C 105.284 121.875 105.185 117.579 103.95 113.629 L 108.938 111.456 C 110.32 110.863 110.962 109.234 110.32 107.901 C 109.728 106.518 108.098 105.876 106.765 106.518 L 101.778 108.691 C 99.651 105.025 96.537 102.031 92.791 100.049 L 94.766 95.013 C 95.309 93.63 94.618 92.05 93.235 91.507 C 91.852 90.964 90.272 91.655 89.729 93.038 L 87.754 98.074 C 83.557 96.988 79.261 97.087 75.31 98.321 L 73.138 93.334 C 72.545 91.951 70.916 91.309 69.582 91.951 C 68.2 92.544 67.558 94.173 68.2 95.506 L 70.372 100.494 C 66.707 102.621 63.713 105.735 61.731 109.481 L 56.694 107.506 C 55.312 106.962 53.732 107.654 53.189 109.036 C 52.645 110.419 53.337 111.999 54.719 112.542 L 59.805 114.517 C 58.719 118.715 58.818 123.011 60.052 126.961 L 55.065 129.134 C 53.682 129.726 53.04 131.356 53.682 132.689 C 53.979 133.38 54.522 133.874 55.164 134.121 C 55.806 134.368 56.546 134.368 57.238 134.072 L 62.225 131.899 C 64.352 135.565 67.466 138.559 71.212 140.54 L 69.237 145.577 C 68.694 146.96 69.385 148.54 70.768 149.083 C 72.15 149.626 73.73 148.935 74.273 147.552 L 76.249 142.466 C 80.446 143.552 84.742 143.454 88.692 142.219 L 90.865 147.207 C 91.161 147.898 91.704 148.392 92.346 148.639 C 92.988 148.885 93.729 148.885 94.42 148.589 C 95.803 147.997 96.445 146.416 95.803 145.034 L 93.63 140.047 C 97.296 137.92 100.29 134.806 102.271 131.06 L 107.358 133.035 C 108.74 133.578 110.32 132.887 110.863 131.504 C 111.308 130.171 110.666 128.591 109.234 128.047 L 109.234 128.047 Z  M 76.94 132.887 C 69.928 130.121 66.472 122.221 69.237 115.209 C 72.002 108.197 79.903 104.74 86.915 107.506 C 90.281 108.827 92.985 111.432 94.43 114.748 C 95.875 118.064 95.942 121.818 94.618 125.183 C 93.296 128.55 90.691 131.254 87.375 132.699 C 84.06 134.144 80.305 134.211 76.94 132.887 L 76.94 132.887 Z  M 145.923 135.602 L 142.565 134.269 C 143.306 131.504 143.207 128.689 142.417 126.072 L 145.676 124.64 C 146.565 124.245 147.009 123.208 146.614 122.27 C 146.219 121.381 145.182 120.937 144.244 121.332 L 140.985 122.764 C 139.602 120.394 137.627 118.418 135.059 117.085 L 136.393 113.777 C 136.738 112.839 136.294 111.802 135.405 111.456 C 134.467 111.11 133.43 111.555 133.084 112.444 L 131.751 115.801 C 128.986 115.061 126.171 115.159 123.554 115.949 L 122.122 112.641 C 121.727 111.752 120.69 111.308 119.752 111.703 C 118.863 112.098 118.418 113.135 118.814 114.073 L 120.246 117.381 C 117.875 118.764 115.9 120.739 114.567 123.307 L 111.258 121.974 C 110.32 121.628 109.283 122.073 108.938 122.961 C 108.592 123.9 109.036 124.937 109.925 125.282 L 113.234 126.615 C 112.493 129.381 112.592 132.195 113.382 134.812 L 110.073 136.244 C 109.185 136.639 108.74 137.676 109.135 138.615 C 109.333 139.059 109.678 139.405 110.123 139.553 C 110.567 139.701 111.061 139.701 111.505 139.503 L 114.814 138.071 C 116.196 140.442 118.172 142.417 120.69 143.75 L 119.357 147.058 C 119.011 147.997 119.455 149.034 120.344 149.379 C 121.282 149.725 122.319 149.28 122.665 148.392 L 123.998 145.083 C 126.764 145.824 129.578 145.725 132.195 144.935 L 133.627 148.244 C 133.825 148.688 134.17 149.034 134.615 149.182 C 135.059 149.33 135.553 149.33 135.997 149.132 C 136.886 148.737 137.331 147.7 136.936 146.762 L 135.504 143.454 C 137.874 142.071 139.849 140.096 141.182 137.528 L 144.491 138.861 C 145.429 139.207 146.466 138.763 146.812 137.874 C 147.256 136.985 146.812 135.948 145.923 135.602 L 145.923 135.602 Z  M 126.22 134.812 C 123.801 133.874 122.616 131.109 123.554 128.689 C 124.492 126.27 127.257 125.085 129.677 126.023 C 132.097 126.961 133.282 129.726 132.343 132.146 C 131.356 134.615 128.64 135.8 126.22 134.812 Z  M 117.628 66.62 L 117.628 35.807 L 121.184 35.807 C 122.912 35.807 124.295 34.424 124.295 32.696 L 124.295 15.611 C 124.295 13.883 122.912 12.5 121.184 12.5 L 78.767 12.5 C 77.039 12.5 75.656 13.883 75.656 15.611 L 75.656 32.696 C 75.656 34.424 77.039 35.807 78.767 35.807 L 82.322 35.807 L 82.322 66.62 C 56.164 74.415 38.245 98.481 38.276 125.776 C 38.276 159.798 65.978 187.5 100 187.5 C 134.022 187.5 161.724 159.798 161.724 125.776 C 161.675 98.37 143.701 74.372 117.628 66.62 L 117.628 66.62 Z  M 81.878 29.536 L 81.878 18.672 L 118.023 18.672 L 118.023 29.536 L 81.878 29.536 Z  M 99.951 181.278 C 69.336 181.278 44.448 156.391 44.448 125.776 C 44.448 100.395 61.583 78.273 86.174 72.002 C 87.556 71.656 88.495 70.422 88.495 68.99 L 88.495 35.807 L 111.357 35.807 L 111.357 68.99 C 111.357 70.422 112.345 71.656 113.727 72.002 C 138.318 78.273 155.453 100.395 155.453 125.776 C 155.453 156.342 130.566 181.278 99.951 181.278 L 99.951 181.278 Z  M 139.355 102.025 C 138.615 102.025 137.923 101.63 137.528 100.988 C 129.282 86.47 113.53 82.174 113.382 82.125 C 112.295 81.828 111.604 80.693 111.9 79.606 C 112.197 78.52 113.332 77.829 114.419 78.125 C 115.11 78.323 131.998 82.865 141.133 98.914 C 141.725 99.901 141.33 101.185 140.343 101.728 C 140.047 101.975 139.701 102.025 139.355 102.025 L 139.355 102.025 Z " fill-rule="evenodd"/>
		<path id="travels" d=" M 22.898 129.528 L 26.684 131.699 L 45.006 112.922 C 39.757 112.417 34.003 111.408 28.602 110.045 L 22.898 129.528 L 22.898 129.528 Z  M 86.296 139.926 C 83.621 144.823 81.854 149.214 78.27 159.158 C 76.857 163.095 75.09 166.174 73.677 168.698 C 71.203 173.039 70.951 173.998 71.86 174.805 C 74.283 176.925 77.614 179.5 79.431 180.913 C 89.072 169.859 113.906 130.689 124.91 113.225 L 83.267 113.225 C 85.589 122.714 88.365 136.09 86.296 139.926 L 86.296 139.926 Z  M 78.22 40.842 C 81.854 50.786 83.621 55.177 86.245 60.074 C 88.365 63.96 85.539 77.286 83.166 86.775 L 124.809 86.775 C 113.856 69.311 88.971 30.141 79.33 19.087 C 77.513 20.5 74.182 23.075 71.759 25.195 C 70.85 26.002 71.153 26.961 73.576 31.302 C 75.04 33.826 76.806 36.905 78.22 40.842 L 78.22 40.842 Z  M 44.956 87.129 L 26.633 68.352 L 22.848 70.522 L 28.551 90.006 C 33.952 88.643 39.707 87.633 44.956 87.129 L 44.956 87.129 Z  M 151.763 90.561 L 51.013 90.561 C 50.155 90.561 49.297 90.561 48.439 90.611 C 43.795 90.813 39.05 91.52 34.608 92.429 C 32.236 92.933 29.965 93.438 27.845 94.044 C 27.239 94.195 26.633 94.397 26.028 94.549 C 19.314 96.467 14.166 98.688 12.5 100 C 14.166 101.312 19.314 103.483 26.028 105.451 C 26.633 105.603 27.239 105.805 27.845 105.956 C 29.965 106.511 32.236 107.067 34.608 107.571 C 39.05 108.48 43.795 109.187 48.439 109.389 C 49.297 109.439 50.155 109.439 51.013 109.439 L 151.763 109.439 C 166.552 109.439 187.5 104.543 187.5 100 C 187.5 95.558 166.199 90.561 151.763 90.561 L 151.763 90.561 Z "/>
	</defs>
</svg>